<?xml version="1.0" encoding="UTF-8"?>
<svg id="Layer_1" data-name="Layer 1" xmlns="http://www.w3.org/2000/svg" viewBox="0 0 256 256">
  <defs>
    <style>
      .cls-1 {
        fill: #fff;
      }

      .cls-2 {
        fill: #f64;
      }
    </style>
  </defs>
  <rect class="cls-2" x="7" y="7.03" width="241" height="241.94" rx="13.73" ry="13.73"/>
  <g>
    <circle class="cls-1" cx="130.95" cy="130.97" r="22.23"/>
    <path class="cls-1" d="m221.2,130.97l-32.61-16.41c1.36,5.24,2.08,10.74,2.08,16.41s-.72,11.16-2.08,16.41l32.61-16.41Z"/>
    <path class="cls-1" d="m60.17,130.97c0-5.74.75-11.31,2.14-16.62l-33.5,16.86,33.65,16.94c-1.49-5.47-2.29-11.23-2.29-17.18Z"/>
    <path class="cls-1" d="m131.07,201.51c-6.01,0-11.85-.76-17.42-2.17l16.94,33.66,16.8-33.39c-5.24,1.24-10.7,1.91-16.32,1.91Z"/>
    <path class="cls-1" d="m131.07,60.67c5.57,0,10.99.65,16.18,1.87l-16.66-33.12-16.8,33.38c5.53-1.39,11.32-2.14,17.28-2.14Z"/>
    <path class="cls-1" d="m158.24,154.33c-6.66,7.83-16.59,12.82-27.65,12.82-20.01,0-36.29-16.28-36.29-36.29s16.28-36.29,36.29-36.29c10.91,0,20.72,4.84,27.37,12.49,3.15-7.33,7.74-13.89,13.41-19.34-11.07-10.48-25.48-16.23-40.78-16.23s-30.77,6.18-41.98,17.39c-11.21,11.21-17.39,26.12-17.39,41.98s6.18,30.77,17.39,41.98c11.21,11.21,26.12,17.39,41.98,17.39s30.15-5.93,41.29-16.71c-5.74-5.38-10.4-11.89-13.63-19.18Z"/>
  </g>
</svg>